
<!DOCTYPE svg PUBLIC "-//W3C//DTD SVG 20010904//EN"
 "http://www.w3.org/TR/2001/REC-SVG-20010904/DTD/svg10.dtd">
<svg version="1.0" xmlns="http://www.w3.org/2000/svg"
 width="50" height="50" viewBox="0 0 1024.000000 1024.000000"
 preserveAspectRatio="xMidYMid meet">

<g transform="translate(0.000000,1024.000000) scale(0.100000,-0.100000)"
fill="#ffffffff" stroke="none">
<path d="M4645 8639 c-672 -58 -1280 -422 -1658 -994 -193 -292 -328 -642
-382 -990 -35 -220 -30 -565 10 -802 63 -367 265 -796 528 -1123 357 -444 898
-753 1507 -862 109 -19 161 -22 400 -23 216 0 301 4 395 18 235 36 516 123
709 219 l80 40 -72 30 c-162 67 -342 202 -456 340 -235 285 -316 657 -221
1016 81 304 316 586 608 728 l57 28 0 196 0 197 70 148 c62 134 68 151 56 170
-10 15 -26 21 -70 23 l-56 3 0 196 0 195 -64 332 c-35 182 -71 374 -81 427
-31 176 -42 165 -89 -86 -87 -470 -106 -572 -116 -605 -5 -19 -10 -131 -10
-247 l0 -213 -46 0 c-58 0 -84 -14 -84 -45 0 -14 29 -89 64 -168 l64 -144 4
-161 c2 -89 2 -159 0 -157 -2 2 -19 37 -36 77 -97 223 -283 411 -596 603 -164
101 -211 137 -260 203 -38 51 -40 59 -40 123 0 66 1 69 23 69 44 0 116 28 156
59 32 26 98 128 88 137 -1 2 -34 -13 -72 -32 -64 -33 -76 -35 -134 -31 -78 6
-133 41 -168 106 -27 52 -31 136 -8 200 17 49 8 52 -40 9 -57 -49 -79 -101
-80 -183 0 -59 4 -78 27 -117 16 -25 47 -62 69 -82 l42 -35 -2 -83 c-2 -77 -4
-87 -38 -136 -52 -76 -103 -117 -302 -244 -208 -134 -292 -199 -384 -298 -125
-135 -193 -284 -204 -445 -7 -112 14 -205 84 -362 4 -10 -15 -13 -79 -13 -137
0 -128 23 -128 -326 0 -162 -3 -294 -7 -294 -17 0 -162 232 -229 364 -153 306
-224 612 -224 958 1 478 151 932 432 1305 193 258 443 463 743 609 127 62 347
149 406 161 16 3 29 9 29 14 0 11 -76 10 -215 -2z"/>
<path d="M6382 6209 c-96 -17 -243 -71 -324 -120 -292 -176 -460 -439 -499
-784 -35 -309 78 -608 315 -831 141 -134 297 -218 481 -260 109 -25 331 -26
433 -1 215 52 416 170 542 319 122 145 191 269 230 410 56 207 46 411 -30 618
-113 312 -380 548 -715 632 -92 23 -345 33 -433 17z m118 -264 c0 -78 2 -88
25 -110 41 -42 95 -29 114 26 6 18 11 63 11 100 l0 69 28 0 c45 0 173 -36 244
-68 250 -113 423 -332 474 -600 8 -40 14 -75 14 -77 0 -2 -41 -5 -91 -7 -81
-3 -93 -6 -110 -27 -25 -30 -24 -76 1 -101 17 -17 33 -20 110 -20 105 0 101 6
70 -116 -78 -304 -318 -541 -622 -614 -124 -30 -115 -34 -120 71 -3 81 -6 93
-27 110 -30 25 -76 24 -101 -1 -17 -17 -20 -33 -20 -110 0 -102 6 -98 -96 -79
-309 57 -575 319 -648 636 -25 109 -29 103 69 103 78 0 88 2 110 25 14 13 25
36 25 50 0 14 -11 37 -25 50 -22 23 -32 25 -110 25 l-87 0 7 53 c11 81 43 174
93 272 38 74 63 107 142 185 52 52 121 110 152 129 106 62 246 109 326 110
l42 1 0 -85z"/>
<path d="M6819 5490 c-154 -146 -228 -210 -244 -210 -13 0 -87 43 -165 95
-148 100 -160 104 -202 67 -21 -18 -23 -61 -5 -85 6 -9 63 -51 126 -94 86 -58
120 -88 135 -117 29 -54 65 -79 116 -79 51 0 89 26 106 73 8 24 82 105 228
250 232 230 241 243 193 288 -13 12 -33 22 -45 22 -15 0 -93 -68 -243 -210z"/>
</g>
</svg>
